<?xml version="1.0" encoding="UTF-8"?>
<!-- Generator: Adobe Illustrator 16.0.0, SVG Export Plug-In . SVG Version: 6.00 Build 0)  -->
<!DOCTYPE svg PUBLIC "-//W3C//DTD SVG 1.1//EN" "http://www.w3.org/Graphics/SVG/1.1/DTD/svg11.dtd">
<svg version="1.1" id="Layer_1" xmlns="http://www.w3.org/2000/svg" xmlns:xlink="http://www.w3.org/1999/xlink" x="0px" y="0px" width="253.5px" height="62.5px" viewBox="2.75 10.5 253.5 62.5" enable-background="new 2.75 10.5 253.5 62.5" xml:space="preserve">
<g>
	<path fill="#29B8EB" d="M27.562,31.469c8.641,0,14.257,4.824,14.257,10.945c0,7.633-8.785,11.736-21.746,11.736h-5.185v0.504   c0,6.121,2.736,8.785,7.92,8.785c3.457,0,7.273-1.439,10.369-3.312l3.816,6.982c-4.249,2.883-9.433,4.755-15.553,4.755   c-10.153,0-17.282-6.481-17.282-16.923C4.16,41.549,14.313,31.469,27.562,31.469z M16.041,47.742h4.033   c8.712,0,11.521-2.376,11.521-5.041c0-2.016-1.8-3.672-4.896-3.672C22.162,39.029,17.985,42.414,16.041,47.742z"/>
	<path fill="#29B8EB" d="M54.417,71H44.048l6.697-38.667h8.785l-0.072,6.049c3.24-3.889,7.776-6.841,13.105-6.841   c5.041,0,8.569,2.448,9.505,6.913c4.104-4.608,8.712-6.913,13.537-6.913c6.048,0,9.721,3.745,9.721,9.217   c0,2.016-0.288,4.825-0.72,7.129L100.501,71H90.276l4.32-24.338c0.144-1.008,0.36-2.521,0.36-3.601   c0-2.232-1.008-3.528-3.384-3.528c-3.24,0-6.625,2.664-9.793,7.057c-0.072,0.145-0.072,0.288-0.072,0.432L77.387,71H67.234   l4.32-24.338c0.144-1.08,0.36-2.448,0.36-3.601c0-2.088-0.864-3.528-3.384-3.528c-3.384,0-6.625,2.808-9.865,7.416L54.417,71z"/>
	<path fill="#29B8EB" d="M118.712,16.635h10.585l-3.672,20.522c2.88-3.384,6.408-5.544,11.089-5.544   c7.488,0,12.817,5.616,12.817,15.841c0,14.257-7.922,24.267-18.938,24.267c-4.681,0-8.065-2.017-10.729-4.896L118.568,71h-9.433   L118.712,16.635z M128.433,63.871c6.481,0,10.441-7.561,10.441-16.057c0-5.979-2.593-8.209-5.761-8.209   c-3.312,0-6.408,2.448-9.073,6.553l-2.664,14.617C123.393,62.791,125.553,63.871,128.433,63.871z"/>
	<path fill="#29B8EB" d="M159.607,32.909h10.514L163.424,71h-10.585L159.607,32.909z"/>
	<path fill="#29B8EB" d="M181.711,16.635h10.585l-3.672,20.522c2.88-3.384,6.408-5.544,11.089-5.544   c7.488,0,12.816,5.616,12.816,15.841c0,14.257-7.92,24.267-18.938,24.267c-4.68,0-8.063-2.017-10.729-4.896L181.566,71h-9.434   L181.711,16.635z M191.432,63.871c6.48,0,10.441-7.561,10.441-16.057c0-5.979-2.594-8.209-5.762-8.209   c-3.312,0-6.407,2.448-9.071,6.553l-2.665,14.617C186.393,62.791,188.552,63.871,191.432,63.871z"/>
	<path fill="#29B8EB" d="M240.607,31.469c8.642,0,14.258,4.824,14.258,10.945c0,7.633-8.784,11.736-21.746,11.736h-5.186v0.504   c0,6.121,2.735,8.785,7.922,8.785c3.455,0,7.271-1.439,10.369-3.312l3.814,6.982c-4.248,2.883-9.434,4.755-15.555,4.755   c-10.151,0-17.28-6.481-17.28-16.923C217.206,41.549,227.359,31.469,240.607,31.469z M229.087,47.742h4.032   c8.713,0,11.521-2.376,11.521-5.041c0-2.016-1.803-3.672-4.896-3.672C235.208,39.029,231.031,42.414,229.087,47.742z"/>
</g>
<path fill="#29B8EB" d="M172.48,17.5c0,3.313-2.688,6-6,6l0,0c-3.314,0-6-2.687-6-6l0,0c0-3.313,2.686-6,6-6l0,0  C169.794,11.5,172.48,14.187,172.48,17.5L172.48,17.5z"/>
</svg>